# xmcd CD database file
#
# Track frame offsets:
#	150
#	25088
#	69835
#	96483
#	134345
#	140356
#	161568
#	184955
#	190040
#	209128
#	229529
#
# Disc length: 3596 seconds
#
# Revision: 0
# Processed by: cddbd v1.5.1PL0 Copyright (c) Steve Scherf et al.
# Submitted via: CDex 1.51
#
DISCID=9a0e0a0b
DTITLE=Hilary Noble - Noble Savage
DYEAR=2002
DGENRE=Jazz
TTITLE0=The Fire Next Time
TTITLE1=Rumb'azul
TTITLE2=Relapse
TTITLE3=Jelly Roll
TTITLE4=Guiro Moderno
TTITLE5=Seeven Effects of Highly Habitual People
TTITLE6=Ile-Olurun
TTITLE7=(N)eorotrash
TTITLE8=Dream Dance
TTITLE9=Sandunga Mofongo
TTITLE10=Terra Australis
EXTD=YEAR: 2002
EXTT0=
EXTT1=
EXTT2=
EXTT3=
EXTT4=
EXTT5=
EXTT6=
EXTT7=
EXTT8=
EXTT9=
EXTT10=
PLAYORDER=
